<?xml version="1.0" standalone="no"?><!DOCTYPE svg PUBLIC "-//W3C//DTD SVG 1.1//EN" "http://www.w3.org/Graphics/SVG/1.1/DTD/svg11.dtd"><svg t="1596009362355" class="icon" viewBox="0 0 1024 1024" version="1.1" xmlns="http://www.w3.org/2000/svg" p-id="3903" xmlns:xlink="http://www.w3.org/1999/xlink" width="200" height="200"><defs><style type="text/css"></style></defs><path d="M958.20641 4.087824H416.38372a31.872765 31.872765 0 0 0 0 63.745529H958.20641V705.272293h-478.07103a31.774657 31.774657 0 0 0-21.18106 8.073453L225.149176 921.170723v-184.013402a31.885028 31.885028 0 0 0-31.872764-31.885028H65.787397V67.833353h127.489015a31.872765 31.872765 0 0 0 0-63.745529H65.787397A63.81911 63.81911 0 0 0 2.043912 67.833353V705.272293a63.827286 63.827286 0 0 0 63.743485 63.749617h95.618294v223.11344a31.862545 31.862545 0 0 0 18.803991 29.064429 31.523256 31.523256 0 0 0 13.05651 2.80016 31.98518 31.98518 0 0 0 21.183105-8.053014l277.792175-246.925015H958.20641A63.82933 63.82933 0 0 0 1021.956027 705.272293V67.833353A63.823198 63.823198 0 0 0 958.20641 4.087824zM257.021941 259.065853h509.956057a31.872765 31.872765 0 1 0 0-63.745529h-509.956057a31.872765 31.872765 0 0 0 0 63.745529z m509.956057 95.61625h-509.956057a31.872765 31.872765 0 0 0 0 63.745529h509.956057a31.872765 31.872765 0 0 0 0-63.745529z m0 159.361778h-509.956057a31.885028 31.885028 0 0 0 0 63.749617h509.956057a31.885028 31.885028 0 0 0 0-63.749617z" fill="#333333" p-id="3904"></path></svg>