<?xml version="1.0" standalone="no"?><!DOCTYPE svg PUBLIC "-//W3C//DTD SVG 1.1//EN" "http://www.w3.org/Graphics/SVG/1.1/DTD/svg11.dtd"><svg t="1595661921976" class="icon" viewBox="0 0 1024 1024" version="1.1" xmlns="http://www.w3.org/2000/svg" p-id="9994" xmlns:xlink="http://www.w3.org/1999/xlink" width="200" height="200"><defs><style type="text/css"></style></defs><path d="M846.336 920.064H177.664v-110.592l382.976-298.496 285.696-61.44v276.992z" fill="#1ABAFA" p-id="9995"></path><path d="M846.336 940.544H177.664c-11.264 0-20.48-9.216-20.48-20.48V449.536c0-11.264 9.216-20.48 20.48-20.48s20.48 9.216 20.48 20.48v450.048h627.712V449.536c0-11.264 9.216-20.48 20.48-20.48s20.48 9.216 20.48 20.48v470.528c0 11.264-9.216 20.48-20.48 20.48z" p-id="9996"></path><path d="M66.56 569.856c-5.12 0-10.24-2.048-14.336-6.144-8.192-8.192-8.192-20.992 0-29.184l445.44-444.928c8.192-8.192 20.992-8.192 29.184 0l445.44 444.928c8.192 8.192 8.192 20.992 0 29.184-8.192 8.192-20.992 8.192-29.184 0L512 133.12l-431.104 430.592c-4.096 4.096-9.216 6.144-14.336 6.144z" p-id="9997"></path><path d="M66.56 569.856c-5.12 0-10.24-2.048-14.336-6.144-8.192-8.192-8.192-20.992 0-29.184l445.44-444.928c8.192-8.192 20.992-8.192 29.184 0l445.44 444.928c8.192 8.192 8.192 20.992 0 29.184-8.192 8.192-20.992 8.192-29.184 0L512 133.12l-431.104 430.592c-4.096 4.096-9.216 6.144-14.336 6.144z" p-id="9998"></path><path d="M512 583.168c-5.12 0-10.24-2.048-14.336-6.144L384 463.872c-8.192-8.192-8.192-20.992 0-29.184 8.192-8.192 20.992-8.192 29.184 0l99.328 98.816 99.328-98.816c8.192-8.192 20.992-8.192 29.184 0 8.192 8.192 8.192 20.992 0 29.184L527.36 577.536c-5.12 3.584-10.24 5.632-15.36 5.632z" p-id="9999"></path><path d="M636.416 583.168H387.584c-11.264 0-20.48-9.216-20.48-20.48s9.216-20.48 20.48-20.48h248.32c11.264 0 20.48 9.216 20.48 20.48s-8.704 20.48-19.968 20.48zM636.416 707.072H387.584c-11.264 0-20.48-9.216-20.48-20.48s9.216-20.48 20.48-20.48h248.32c11.264 0 20.48 9.216 20.48 20.48s-8.704 20.48-19.968 20.48z" p-id="10000"></path><path d="M512 831.488c-11.264 0-20.48-9.216-20.48-20.48v-248.32c0-11.264 9.216-20.48 20.48-20.48s20.48 9.216 20.48 20.48v248.32c0 11.264-9.216 20.48-20.48 20.48z" p-id="10001"></path></svg>