<?xml version="1.0" standalone="no"?><!DOCTYPE svg PUBLIC "-//W3C//DTD SVG 1.1//EN" "http://www.w3.org/Graphics/SVG/1.1/DTD/svg11.dtd"><svg t="1615462064313" class="icon" viewBox="0 0 1024 1024" version="1.1" xmlns="http://www.w3.org/2000/svg" p-id="5555" xmlns:xlink="http://www.w3.org/1999/xlink" width="200" height="200"><defs><style type="text/css"></style></defs><path d="M518.4 451.2m-96 0a96 96 0 1 0 192 0 96 96 0 1 0-192 0Z" fill="#c7c7c7" p-id="5556"></path><path d="M518.4 656c-236.8 0-416-89.6-416-208s179.2-208 416-208 416 89.6 416 208c0 121.6-179.2 208-416 208z m0-348.8c-208 0-352 73.6-352 144 0 67.2 144 144 352 144s352-73.6 352-144c0-67.2-144-144-352-144z" fill="#c7c7c7" p-id="5557"></path></svg>