<?xml version="1.0" standalone="no"?><!DOCTYPE svg PUBLIC "-//W3C//DTD SVG 1.1//EN" "http://www.w3.org/Graphics/SVG/1.1/DTD/svg11.dtd"><svg t="1596006134557" class="icon" viewBox="0 0 1024 1024" version="1.1" xmlns="http://www.w3.org/2000/svg" p-id="2038" xmlns:xlink="http://www.w3.org/1999/xlink" width="200" height="200"><defs><style type="text/css"></style></defs><path d="M511.371087 1022.750236c136.603213 0 265.078929-53.183496 361.633259-149.74589 96.562394-96.554331 149.74589-225.030047 149.74589-361.625196 0-136.611276-53.183496-265.078929-149.74589-361.641323C776.450016 53.183496 647.974299 0 511.37915 0 374.767874 0 246.292157 53.183496 149.729764 149.737827 53.183496 246.30022 0 374.775937 0 511.371087c0 136.603213 53.183496 265.078929 149.737827 361.633259 96.562394 96.562394 225.03811 149.74589 361.63326 149.74589z m325.559433-185.819716c-86.967433 86.967433-202.51011 134.724535-325.559433 134.724535-114.28485 0-222.312819-41.508283-306.780725-117.211716l649.852977-649.852977c75.711496 84.467906 117.211717 192.495874 117.211716 306.780725 0 123.049323-47.974803 238.583937-134.732598 325.559433zM185.819717 185.819717C272.78715 99.061921 388.329827 51.095181 511.371087 51.095181c114.494488 0 222.320882 41.50022 306.788787 117.211717L168.306898 818.151811C92.595402 733.691969 51.095181 625.873638 51.095181 511.371087c0-123.04126 47.974803-238.583937 134.732599-325.55137z" fill="#20A0FF" p-id="2039"></path></svg>