<?xml version="1.0" standalone="no"?><!DOCTYPE svg PUBLIC "-//W3C//DTD SVG 1.1//EN" "http://www.w3.org/Graphics/SVG/1.1/DTD/svg11.dtd"><svg t="1595214104900" class="icon" viewBox="0 0 1024 1024" version="1.1" xmlns="http://www.w3.org/2000/svg" p-id="2042" xmlns:xlink="http://www.w3.org/1999/xlink" width="200" height="200"><defs><style type="text/css"></style></defs><path d="M181.677419 726.709677h660.645162v49.548388H181.677419z" fill="#5ED7BC" p-id="2043"></path><path d="M231.225806 57.806452A24.774194 24.774194 0 0 0 206.451613 82.580645v858.83871A24.774194 24.774194 0 0 0 231.225806 966.193548h561.548388a24.774194 24.774194 0 0 0 24.774193-24.774193V82.580645A24.774194 24.774194 0 0 0 792.774194 57.806452H231.225806z m0-49.548387h561.548388A74.322581 74.322581 0 0 1 867.096774 82.580645v858.83871a74.322581 74.322581 0 0 1-74.32258 74.32258H231.225806A74.322581 74.322581 0 0 1 156.903226 941.419355V82.580645A74.322581 74.322581 0 0 1 231.225806 8.258065z" fill="#0069F6" p-id="2044"></path><path d="M503.741935 867.096774m-41.290322 0a41.290323 41.290323 0 1 0 82.580645 0 41.290323 41.290323 0 1 0-82.580645 0Z" fill="#5ED7BC" p-id="2045"></path></svg>