<?xml version="1.0" standalone="no"?><!DOCTYPE svg PUBLIC "-//W3C//DTD SVG 1.1//EN" "http://www.w3.org/Graphics/SVG/1.1/DTD/svg11.dtd"><svg t="1615790098158" class="icon" viewBox="0 0 1024 1024" version="1.1" xmlns="http://www.w3.org/2000/svg" p-id="1943" xmlns:xlink="http://www.w3.org/1999/xlink" width="200" height="200"><defs><style type="text/css"></style></defs><path d="M572.753568 124.225031c-0.450254-0.667194-0.900508-1.327225-1.359972-1.977024a82.86717 82.86717 0 0 0-2.885717-3.768829 84.501387 84.501387 0 0 0-1.513467-1.790782 77.594084 77.594084 0 0 0-3.16508-3.390207v-0.00307a63.869529 63.869529 0 0 0-1.648543-1.599424c-0.553608-0.527002-1.116425-1.03763-1.685382-1.53905s-1.149171-0.995675-1.726314-1.475604v-0.004093a72.345557 72.345557 0 0 0-1.76213-1.41216 82.354495 82.354495 0 0 0-3.630683-2.637055 79.35519 79.35519 0 0 0-1.87367-1.224895 73.515194 73.515194 0 0 0-3.818971-2.258432l-0.00921-0.004093a69.557053 69.557053 0 0 0-3.929488-2.0067v-0.00614a70.477004 70.477004 0 0 0-2.007722-0.906647v-0.004093c-0.671288-0.288572-1.351785-0.56998-2.033306-0.846273a71.394907 71.394907 0 0 0-4.115729-1.506304v-0.004093a79.464684 79.464684 0 0 0-2.084471-0.654915v-0.005116a79.162809 79.162809 0 0 0-4.227269-1.127681v-0.004093a75.922005 75.922005 0 0 0-4.271272-0.875949 73.982844 73.982844 0 0 0-8.651013-1.002838c-18.850286-1.088796-38.065891 4.89958-52.851613 17.966151h-0.008186a72.427421 72.427421 0 0 0-4.933349 4.80646 72.300532 72.300532 0 0 0-3.070936 3.518119 70.365463 70.365463 0 0 0-2.882648 3.76883c-0.468673 0.649798-0.918927 1.309829-1.362018 1.977023h-0.00921L15.223696 824.719703c-28.591118 50.03548 7.14471 107.215669 57.181213 107.215669h879.179949c50.036503 0 85.780517-57.181213 57.191446-107.215669L572.753568 124.225031z m-92.166959 551.909885h64.444626c3.946884 0 7.161082 3.219315 7.161082 7.158013v103.321997c0 3.938698-3.214198 7.161082-7.161082 7.161082h-64.444626c-3.939721 0-7.163129-3.222385-7.163129-7.161082V683.292929c0-3.939721 3.222385-7.158013 7.163129-7.158013z m0-356.002398h64.444626c3.946884 0 7.161082 3.224431 7.161082 7.162106v282.342918c0 3.938698-3.214198 7.159036-7.161082 7.159036h-64.444626c-3.939721 0-7.163129-3.220338-7.163129-7.159036V327.294624c0-3.937674 3.222385-7.162106 7.163129-7.162106z" fill="#007aff" p-id="1944"></path></svg>