<?xml version="1.0" standalone="no"?><!DOCTYPE svg PUBLIC "-//W3C//DTD SVG 1.1//EN" "http://www.w3.org/Graphics/SVG/1.1/DTD/svg11.dtd"><svg t="1615208850162" class="icon" viewBox="0 0 1024 1024" version="1.1" xmlns="http://www.w3.org/2000/svg" p-id="2141" xmlns:xlink="http://www.w3.org/1999/xlink" width="200" height="200"><defs><style type="text/css"></style></defs><path d="M146.688 457.344l91.52 90.56a31.744 31.744 0 0 1 0 45.248 32.64 32.64 0 0 1-45.76 0l-33.92-33.472C182.016 731.52 330.88 864 511.104 864a356.48 356.48 0 0 0 283.84-139.712 32.64 32.64 0 0 1 45.312-6.144c14.208 10.624 17.024 30.72 6.208 44.8a421.376 421.376 0 0 1-335.36 165.056c-217.344 0-396.16-163.072-418.24-372.224l-37.632 37.376a32.64 32.64 0 0 1-45.76 0 31.744 31.744 0 0 1 0-45.248l91.52-90.56a32.64 32.64 0 0 1 45.696 0zM511.104 96c226.368 0 410.88 176.96 420.096 398.656l37.568-37.312a32.64 32.64 0 0 1 45.76 0 31.744 31.744 0 0 1 0 45.312l-91.52 90.496a32.64 32.64 0 0 1-45.696 0l-91.52-90.496a31.744 31.744 0 0 1 0-45.312 32.64 32.64 0 0 1 45.76 0l34.752 34.368C855.68 306.752 700.8 160 511.104 160a356.48 356.48 0 0 0-285.312 141.632 32.576 32.576 0 0 1-45.248 6.464 31.744 31.744 0 0 1-6.592-44.8A421.376 421.376 0 0 1 511.104 96z" p-id="2142"></path></svg>