<?xml version="1.0" standalone="no"?><!DOCTYPE svg PUBLIC "-//W3C//DTD SVG 1.1//EN" "http://www.w3.org/Graphics/SVG/1.1/DTD/svg11.dtd"><svg t="1615706900289" class="icon" viewBox="0 0 1024 1024" version="1.1" xmlns="http://www.w3.org/2000/svg" p-id="9405" xmlns:xlink="http://www.w3.org/1999/xlink" width="200" height="200"><defs><style type="text/css"></style></defs><path d="M255.96 661.23h543.915c53.011 0 95.985 42.974 95.985 95.985v85.32c0 53.011-42.974 95.985-95.985 95.985h-575.91c-53.011 0-95.985-42.974-95.985-95.985v-85.32c0-41.792 26.71-77.347 63.99-90.523V575.91h63.99v85.32z m-31.995 63.99c-17.67 0-31.995 14.325-31.995 31.995v85.32c0 17.67 14.325 31.995 31.995 31.995h575.91c17.67 0 31.995-14.325 31.995-31.995v-85.32c0-17.67-14.325-31.995-31.995-31.995h-575.91z m479.925 42.66h63.99v63.99h-63.99v-63.99zM134.674 256.501C226.55 151.578 361.498 85.32 511.92 85.32c150.422 0 285.369 66.258 377.246 171.181L841.672 299.4C761.51 207.43 643.502 149.31 511.92 149.31c-131.583 0-249.59 58.12-329.752 150.09L134.674 256.5z m142.49 128.702C333.888 319.14 418.017 277.29 511.92 277.29s178.033 41.849 234.755 107.913l-47.507 42.91c-44.995-53.116-112.184-86.833-187.248-86.833s-142.253 33.717-187.248 86.833l-47.507-42.91zM419.75 513.99c21.483-27.242 54.784-44.73 92.17-44.73s70.687 17.488 92.17 44.73l-47.726 43.107c-9.553-14.373-25.892-23.847-44.444-23.847-18.552 0-34.891 9.474-44.444 23.847L419.75 513.99z" p-id="9406" fill="#bfbfbf"></path></svg>