<?xml version="1.0" standalone="no"?><!DOCTYPE svg PUBLIC "-//W3C//DTD SVG 1.1//EN" "http://www.w3.org/Graphics/SVG/1.1/DTD/svg11.dtd"><svg t="1615706879556" class="icon" viewBox="0 0 1024 1024" version="1.1" xmlns="http://www.w3.org/2000/svg" p-id="8955" xmlns:xlink="http://www.w3.org/1999/xlink" width="200" height="200"><defs><style type="text/css"></style></defs><path d="M255.973943 409.678172a51.193486 51.193486 0 0 1 51.193485 51.193486v179.1772h102.386971v-179.1772a51.193486 51.193486 0 0 1 51.193486-51.193486h102.386971a51.193486 51.193486 0 0 1 51.193486 51.193486v179.1772h102.386971v-179.1772a51.193486 51.193486 0 0 1 51.193486-51.193486h102.386971a51.193486 51.193486 0 0 1 51.193486 51.193486v179.1772h25.596743a25.596743 25.596743 0 1 1 0 51.193485h-25.596743v281.564171a51.193486 51.193486 0 0 1-51.193486 51.193486h-102.386971a51.193486 51.193486 0 0 1-51.193486-51.193486V691.242343h-102.386971v281.564171a51.193486 51.193486 0 0 1-51.193486 51.193486h-102.386971a51.193486 51.193486 0 0 1-51.193486-51.193486V691.242343h-102.386971v281.564171a51.193486 51.193486 0 0 1-51.193485 51.193486H153.586971a51.193486 51.193486 0 0 1-51.193485-51.193486V691.242343H76.796743a25.596743 25.596743 0 1 1 0-51.193485h25.596743v-179.1772a51.193486 51.193486 0 0 1 51.193485-51.193486h102.386972z m-25.596743 51.193486H179.183714a25.596743 25.596743 0 0 0-25.596743 25.596743v460.741371a25.596743 25.596743 0 0 0 25.596743 25.596742h51.193486a25.596743 25.596743 0 0 0 25.596743-25.596742V486.468401a25.596743 25.596743 0 0 0-25.596743-25.596743z m307.160913 0h-51.193485a25.596743 25.596743 0 0 0-25.596743 25.596743v460.741371a25.596743 25.596743 0 0 0 25.596743 25.596742h51.193485a25.596743 25.596743 0 0 0 25.596743-25.596742V486.468401a25.596743 25.596743 0 0 0-25.596743-25.596743z m307.160914 0h-51.193485a25.596743 25.596743 0 0 0-25.596743 25.596743v460.741371a25.596743 25.596743 0 0 0 25.596743 25.596742h51.193485a25.596743 25.596743 0 0 0 25.596743-25.596742V486.468401a25.596743 25.596743 0 0 0-25.596743-25.596743zM321.348024 12.723885a23.472213 23.472213 0 0 1-9.470795 31.4328c-24.009745 12.900758-34.555603 28.719545-34.555603 49.708875 0 20.989329 10.545858 36.85931 35.067538 50.041632 38.19034 21.808425 58.770122 52.678097 58.770121 90.740453 0 36.193794-18.583235 65.860419-53.164435 87.438474l-5.58009 3.327576a23.472213 23.472213 0 1 1-24.240115-40.186886l0.947079-0.537532c24.419293-13.950225 35.118731-30.024979 35.118732-50.041632s-10.699438-36.091407-34.555603-49.708874C251.110561 164.205409 230.3772 133.130963 230.3772 93.86556 230.3772 56.571105 249.088419 26.648513 284.027973 6.017538l5.631283-3.173996a23.472213 23.472213 0 0 1 31.688768 9.90594z m375.40183 0a23.472213 23.472213 0 0 1-9.470795 31.4328c-23.984148 12.900758-34.555603 28.719545-34.555603 49.708875 0 20.989329 10.571455 36.85931 35.093135 50.041632 38.19034 21.808425 58.770122 52.678097 58.770121 90.740453 0 36.193794-18.583235 65.860419-53.164435 87.438474l-5.605686 3.327576a23.472213 23.472213 0 1 1-24.240116-40.186886l0.972676-0.537532c24.393696-13.950225 35.093134-30.024979 35.093135-50.041632s-10.699438-36.091407-34.555603-49.708874c-38.548695-20.707765-59.282056-51.807807-59.282056-91.073211 0-37.294454 18.711219-67.217047 53.625176-87.873618l5.65688-3.173997a23.472213 23.472213 0 0 1 31.663171 9.90594z m-187.700915 0a23.472213 23.472213 0 0 1-9.470795 31.4328c-24.009745 12.900758-34.555603 28.719545-34.555603 49.708875 0 20.989329 10.545858 36.85931 35.093134 50.041632 38.164744 21.808425 58.744525 52.678097 58.744525 90.740453 0 36.193794-18.557639 65.860419-53.138838 87.438474l-5.605687 3.327576a23.472213 23.472213 0 0 1-24.240115-40.186886l0.972676-0.537532C501.241932 270.739052 511.941371 254.664298 511.941371 234.647645s-10.699438-36.091407-34.555603-49.708874c-38.548695-20.707765-59.307653-51.807807-59.307653-91.073211 0-37.294454 18.736816-67.217047 53.650773-87.873618l5.631283-3.173997a23.472213 23.472213 0 0 1 31.688768 9.90594z" fill="#2c2c2c" p-id="8956"></path></svg>