<?xml version="1.0" standalone="no"?><!DOCTYPE svg PUBLIC "-//W3C//DTD SVG 1.1//EN" "http://www.w3.org/Graphics/SVG/1.1/DTD/svg11.dtd"><svg t="1615706837792" class="icon" viewBox="0 0 1024 1024" version="1.1" xmlns="http://www.w3.org/2000/svg" p-id="7587" xmlns:xlink="http://www.w3.org/1999/xlink" width="200" height="200"><defs><style type="text/css"></style></defs><path d="M704 725.333333h-42.666667v74.666667a32 32 0 0 1-64 0V725.333333h-170.666666v74.666667a32 32 0 0 1-64 0V725.333333H149.333333a64 64 0 0 1-64-64V256a64 64 0 0 1 64-64h725.333334a64 64 0 0 1 64 64v405.333333a64 64 0 0 1-64 64h-170.666667z m64-64h106.666667V256H149.333333v405.333333h106.666667v-85.333333a64 64 0 0 1 64-64h384a64 64 0 0 1 64 64v85.333333z m-53.333333-320h64a32 32 0 0 1 0 64h-64a32 32 0 0 1 0-64zM320 576v85.333333h384v-85.333333H320z" p-id="7588" fill="#bfbfbf"></path></svg>