<?xml version="1.0" standalone="no"?><!DOCTYPE svg PUBLIC "-//W3C//DTD SVG 1.1//EN" "http://www.w3.org/Graphics/SVG/1.1/DTD/svg11.dtd"><svg t="1615706699074" class="icon" viewBox="0 0 1024 1024" version="1.1" xmlns="http://www.w3.org/2000/svg" p-id="4517" xmlns:xlink="http://www.w3.org/1999/xlink" width="200" height="200"><defs><style type="text/css"></style></defs><path d="M803.485521 888.078789H220.514479V125.836249h583.121564V888.078789z m-567.918859-15.052183h553.017198V140.888432H235.566662V873.026606z" fill="#bfbfbf" p-id="4518"></path><path d="M504.549169 133.36234h15.052183v744.029399h-15.052183zM425.374688 482.121417c-20.019403 0-36.426283-16.557401-36.426283-37.02837s16.406879-37.02837 36.426283-37.02837 36.426283 16.557401 36.426282 37.02837-16.406879 37.02837-36.426282 37.02837z m0-59.155079c-11.740703 0-21.3741 9.934441-21.3741 21.976187 0 12.192268 9.633397 21.976187 21.3741 21.976187s21.3741-9.934441 21.374099-21.976187-9.633397-21.976187-21.374099-21.976187zM592.754961 482.121417c-20.019403 0-36.426283-16.557401-36.426282-37.02837s16.406879-37.02837 36.426282-37.02837c20.019403 0 36.426283 16.557401 36.426283 37.02837s-16.406879 37.02837-36.426283 37.02837z m0-59.155079c-11.740703 0-21.3741 9.934441-21.3741 21.976187 0 12.192268 9.633397 21.976187 21.3741 21.976187s21.3741-9.934441 21.3741-21.976187-9.633397-21.976187-21.3741-21.976187zM295.925915 969.059533c-15.804792 0-28.599147-16.256357-28.599147-36.125239v-48.769073h15.052182v48.769073c0 11.138615 6.321917 21.073056 13.546965 21.073056s13.546965-9.783919 13.546965-21.073056v-48.769073h15.052182v48.769073c0 19.868881-12.794355 36.125239-28.599147 36.125239zM729.127738 968.00588c-15.804792 0-28.599147-16.256357-28.599148-36.125239v-48.769073h15.052183v48.769073c0 11.138615 6.321917 21.073056 13.546965 21.073056s13.546965-9.783919 13.546964-21.073056v-48.769073h15.052183v48.769073c0.150522 20.019403-12.794355 36.125239-28.599147 36.125239z" fill="#bfbfbf" p-id="4519"></path></svg>