<?xml version="1.0" standalone="no"?><!DOCTYPE svg PUBLIC "-//W3C//DTD SVG 1.1//EN" "http://www.w3.org/Graphics/SVG/1.1/DTD/svg11.dtd"><svg t="1615706621522" class="icon" viewBox="0 0 1024 1024" version="1.1" xmlns="http://www.w3.org/2000/svg" p-id="2326" xmlns:xlink="http://www.w3.org/1999/xlink" width="200" height="200"><defs><style type="text/css"></style></defs><path d="M839.220875 975.453142h-631.861816c-28.977582 0-52.31018-23.332598-52.31018-52.31018v-760.191106c0-28.977582 23.332598-52.31018 52.31018-52.31018H839.220875c28.977582 0 52.31018 23.332598 52.31018 52.31018v760.191106c0 28.977582-23.332598 52.31018-52.31018 52.31018z m-631.861816-853.521499c-22.579934 0-41.020213 18.440279-41.020213 41.020213v760.191106c0 22.579934 18.440279 41.020213 41.020213 41.020213H839.220875c22.579934 0 41.020213-18.440279 41.020213-41.020213v-760.191106c0-22.579934-18.440279-41.020213-41.020213-41.020213h-631.861816z" p-id="2327" fill="#bfbfbf"></path><path d="M864.811466 248.00294h-682.666666c-2.257993 0-3.763322-1.505329-3.763323-3.763322s1.505329-3.763322 3.763323-3.763323H864.811466c2.257993 0 3.763322 1.505329 3.763323 3.763323s-1.505329 3.763322-3.763323 3.763322zM369.934583 184.026461h-187.789783c-2.257993 0-3.763322-1.505329-3.763323-3.763322s1.505329-3.763322 3.763323-3.763323h187.789783c2.257993 0 3.763322 1.505329 3.763322 3.763323s-1.505329 3.763322-3.763322 3.763322zM472.29695 184.026461h-75.266447c-2.257993 0-3.763322-1.505329-3.763322-3.763322s1.505329-3.763322 3.763322-3.763323h75.266447c2.257993 0 3.763322 1.505329 3.763322 3.763323s-1.505329 3.763322-3.763322 3.763322zM523.478133 818.522602c-120.802646 0-219.025358-98.222712-219.025358-219.025358s98.222712-219.025358 219.025358-219.025359 219.025358 98.222712 219.025358 219.025359-98.222712 219.025358-219.025358 219.025358z m0-426.76075c-114.404998 0-207.735391 93.330393-207.735391 207.735392s93.330393 207.735391 207.735391 207.735391 207.735391-93.330393 207.735391-207.735391-93.330393-207.735391-207.735391-207.735392z" p-id="2328" fill="#bfbfbf"></path><path d="M523.478133 853.145167c-139.99559 0-253.647924-113.652334-253.647924-253.647923s113.652334-253.647924 253.647924-253.647924 253.647924 113.652334 253.647924 253.647924-113.652334 253.647924-253.647924 253.647923z m0-496.00588c-133.597942 0-242.357957 108.760015-242.357957 242.357957s108.760015 242.357957 242.357957 242.357956S765.83609 733.095186 765.83609 599.497244s-108.760015-242.357957-242.357957-242.357957z" p-id="2329" fill="#bfbfbf"></path><path d="M523.478133 853.145167c-139.99559 0-253.647924-113.652334-253.647924-253.647923s113.652334-253.647924 253.647924-253.647924 253.647924 113.652334 253.647924 253.647924-113.652334 253.647924-253.647924 253.647923z m0-496.00588c-133.597942 0-242.357957 108.760015-242.357957 242.357957s108.760015 242.357957 242.357957 242.357956S765.83609 733.095186 765.83609 599.497244s-108.760015-242.357957-242.357957-242.357957z" p-id="2330" fill="#bfbfbf"></path></svg>