<?xml version="1.0" standalone="no"?><!DOCTYPE svg PUBLIC "-//W3C//DTD SVG 1.1//EN" "http://www.w3.org/Graphics/SVG/1.1/DTD/svg11.dtd"><svg t="1595586761395" class="icon" viewBox="0 0 1024 1024" version="1.1" xmlns="http://www.w3.org/2000/svg" p-id="10640" xmlns:xlink="http://www.w3.org/1999/xlink" width="200" height="200"><defs><style type="text/css"></style></defs><path d="M739 388.286l-442 0c-17.434 0-31.57 13.99-31.57 31.248 0 17.26 14.136 31.254 31.57 31.254l442 0c17.438 0 31.572-13.994 31.572-31.254C770.572 402.278 756.438 388.286 739 388.286zM739 576.504l-442 0c-17.434 0-31.57 13.988-31.57 31.248 0 17.262 14.136 31.248 31.57 31.248l442 0c17.438 0 31.572-13.984 31.572-31.248C770.572 590.492 756.438 576.504 739 576.504zM739 201.502l-442 0c-17.434 0-31.57 13.996-31.57 31.25 0 17.262 14.136 31.25 31.57 31.25l442 0c17.438 0 31.572-13.988 31.572-31.25C770.572 215.498 756.438 201.502 739 201.502zM833.714 14.008 202.286 14.008C132.54 14.008 76 69.968 76 139.004l0 875.004 58.934 0 130.496-93.76 73.666 93.76 52.62-0.006 126.286-93.754 117.866 93.76 61.038 0 73.668-93.76 130.494 93.76 58.934 0L960.002 139.004C960.002 69.968 903.46 14.008 833.714 14.008zM896.858 952.342l-126.286-94.592-106.972 128.68-145.6-128.68-157.858 125-94.714-125-126.288 95.566L139.14 139.004c0-34.52 28.272-62.494 63.144-62.494l631.428 0c34.872 0 63.144 27.976 63.144 62.494L896.856 952.342z" p-id="10641" fill="#d81e06"></path></svg>