<?xml version="1.0" standalone="no"?><!DOCTYPE svg PUBLIC "-//W3C//DTD SVG 1.1//EN" "http://www.w3.org/Graphics/SVG/1.1/DTD/svg11.dtd"><svg t="1595586798108" class="icon" viewBox="0 0 1024 1024" version="1.1" xmlns="http://www.w3.org/2000/svg" p-id="11304" xmlns:xlink="http://www.w3.org/1999/xlink" width="200" height="200"><defs><style type="text/css"></style></defs><path d="M96.810395 670.623717c-23.612791-32.529881-38.741349-62.309114-39.314401-92.316545l0 0c0.573051-30.000268 15.70161-59.785641 39.314401-92.315522l0 0c23.858384-32.243355 57.485249-66.12093 98.902544-97.402377l0 0c82.756819-62.413492 197.174732-114.713648 325.931211-114.807792l0 0 0 25.27157 0 25.301246c-171.744549-0.701988-322.830593 107.958804-384.176776 191.703113l0 0c-20.669762 27.285436-29.972639 52.364625-29.389354 62.249763l0 0c-0.582261 9.885138 8.719592 34.964326 29.389354 62.249763l0 0c20.373003 27.607778 50.858318 58.566884 88.702228 87.136569l0 0c75.813686 57.258075 180.829462 104.691387 295.474548 104.601336l0 0c171.675988 0.703011 322.761008-107.98848 384.106168-191.737906l0 0c20.668739-27.285436 29.971615-52.364625 29.398564-62.249763l0 0c0.573051-9.885138-8.729825-34.964326-29.398564-62.249763l0 0c-20.373003-27.602661-50.829665-58.56586-88.702228-87.101777l0 0c-75.81471-57.286728-180.830485-104.69548-295.405987-104.601336l0 0 0-25.301246 0-25.27157c193.301518 0.706081 353.374236 116.436896 424.76417 212.209146l0 0c23.612791 32.530904 38.73214 62.315254 39.315424 92.315522l0 0c-0.583285 30.007431-15.702634 59.786665-39.315424 92.316545l0 0c-23.858384 32.254611-57.475016 66.126047-98.902544 97.411587l0 0c-82.755796 62.402235-197.143009 114.703415-325.859579 114.793466l0 0C328.302723 882.137015 168.210561 766.435876 96.810395 670.623717L96.810395 670.623717zM253.919618 312.305889l-57.554834-57.524135c-9.855462-9.865695-9.855462-25.869181 0-35.764552l0 0c9.865695-9.860579 25.90295-9.860579 35.750225 0l0 0 57.564044 57.55995c9.865695 9.860579 9.865695 25.864064 0 35.729759l0 0c-4.927219 4.942569-11.396561 7.416923-17.874089 7.416923l0 0C265.31618 319.722812 258.858094 317.248458 253.919618 312.305889L253.919618 312.305889zM373.285217 252.045433l-30.890544-75.794244c-5.253654-12.93152 0.957815-27.711132 13.884218-32.963763l0 0c12.93766-5.253654 27.682479 0.957815 32.965809 13.884218l0 0 30.859845 75.79936c5.254677 12.927427-0.957815 27.676339-13.884218 32.929993l0 0c-3.131317 1.279133-6.371104 1.885953-9.549493 1.885953l0 0C386.705877 267.786952 377.275087 261.847683 373.285217 252.045433L373.285217 252.045433zM753.560126 312.305889c-9.874905-9.846252-9.874905-25.853831 0-35.729759l0 0 57.553811-57.549717c9.866718-9.875928 25.88453-9.875928 35.759435 0l0 0c9.833973 9.870812 9.833973 25.883507 0 35.758412l0 0-57.56609 57.520041c-4.925173 4.937452-11.396561 7.401574-17.874089 7.401574l0 0C764.96692 319.708486 758.498602 317.243341 753.560126 312.305889L753.560126 312.305889zM636.970758 265.925558c-12.928451-5.269004-19.149129-20.047592-13.845333-32.975019l0 0 30.849612-75.774801c5.273097-12.921287 20.048615-19.148106 32.984229-13.879102l0 0c12.927427 5.263887 19.148106 20.012799 13.84431 32.939203l0 0L669.94373 252.040317c-3.999081 9.806343-13.468756 15.755846-23.443945 15.755846l0 0C643.320373 267.797186 640.091842 267.194458 636.970758 265.925558L636.970758 265.925558zM503.325945 228.472552l0-95.450932c0-13.964036 11.31879-25.281803 25.281803-25.281803l0 0c13.95585 0 25.28078 11.317767 25.28078 25.281803l0 0 0 95.450932c0 13.95892-11.32493 25.276686-25.28078 25.276686l0 0C514.643712 253.749238 503.325945 242.431471 503.325945 228.472552L503.325945 228.472552zM327.610968 582.578452c0-108.565625 88.010473-196.540282 196.582237-196.576097l0 0c108.530832 0.034792 196.539258 88.010473 196.539258 196.576097l0 0 0.029676 0c-0.029676 108.567671-88.040149 196.538235-196.570981 196.538235l0 0C415.621441 779.11464 327.610968 691.1451 327.610968 582.578452L327.610968 582.578452zM357.938694 582.578452c0.158612 91.797729 74.441433 166.061107 166.255535 166.220742l0 0c91.772146-0.157589 166.053943-74.423013 166.213579-166.220742l0 0c-0.157589-91.778286-74.441433-166.054967-166.213579-166.218696l0 0C432.380126 416.522462 358.096283 490.800165 357.938694 582.578452L357.938694 582.578452zM421.013241 554.389436c-7.682983-3.344165-11.190877-12.300141-7.841595-19.9821l0 0c12.146645-27.894304 34.426067-50.300616 62.284555-62.576197l0 0c14.921851-6.562463 31.43392-10.231015 48.735981-10.231015l0 0c8.353248 0 15.149025 6.789637 15.149025 15.173584l0 0c0 8.350179-6.795776 15.138792-15.149025 15.138792l0 0c-13.035898 0.034792-25.303292 2.745531-36.480866 7.682983l0 0c-20.857027 9.179057-37.654598 26.042119-46.740534 46.923706l0 0 0.028653 0c-2.488681 5.712095-8.087189 9.134031-13.953803 9.134031l0 0C425.032788 555.652196 422.979012 555.250036 421.013241 554.389436L421.013241 554.389436zM402.970306 620.258633c-2.608407-8.249895-4.295839-16.85283-5.126764-25.605168l0 0c-0.799202-8.345062 5.352915-15.737426 13.697977-16.532535l0 0c8.315386-0.794086 15.702634 5.350868 16.501836 13.69286l0 0c0.63138 6.720052 1.936095 13.219069 3.880377 19.36607l0 0c2.518357 7.994068-1.945305 16.497743-9.934257 19.016099l0 0c-1.512447 0.473791-3.051499 0.701988-4.552689 0.701988l0 0C410.979724 630.894877 404.985196 626.736161 402.970306 620.258633L402.970306 620.258633z" p-id="11305" fill="#1afa29"></path></svg>