<?xml version="1.0" standalone="no"?><!DOCTYPE svg PUBLIC "-//W3C//DTD SVG 1.1//EN" "http://www.w3.org/Graphics/SVG/1.1/DTD/svg11.dtd"><svg t="1595592091575" class="icon" viewBox="0 0 1024 1024" version="1.1" xmlns="http://www.w3.org/2000/svg" p-id="18414" xmlns:xlink="http://www.w3.org/1999/xlink" width="200" height="200"><defs><style type="text/css"></style></defs><path d="M950.795 775.232c-14.463-13.017-176.452-147.526-186.576-159.096-14.464-15.91-33.266-20.249-44.837-20.249h-279.14c-30.374 2.893-73.763 14.463-72.317 65.085 1.446 40.497 8.678 57.853 82.44 88.226H334.66c-39.05-28.927-78.101-53.514-117.152-83.887-36.158-27.48-79.548-37.605-111.367-30.373-23.142 5.785-31.82 13.017-43.39 34.712-8.678 18.802-11.57 46.282 5.785 66.53 1.446 1.447 2.893 1.447 4.339 2.893 44.836 40.498 195.254 180.791 206.825 190.916 13.017 11.57 31.82 17.356 49.175 13.017h315.3c11.57 0 21.694 8.678 21.694 8.678s50.622 43.39 63.639 53.514c15.91 13.017 24.587 17.356 41.943 17.356s21.695 5.785 41.944-20.249l140.294-156.203 2.892-2.893c17.356-23.141 14.464-50.621-5.785-67.977z m-228.52 166.327c-2.893-2.892-28.926-34.712-66.53-34.712H314.41L98.908 705.807s4.339-65.084 60.746-27.48c52.067 40.498 133.062 102.69 134.508 104.136 5.785 4.34 13.017 5.786 20.249 5.786h151.864c4.34 0 76.656-1.447 76.656-24.588 0-17.356-10.125-23.141-49.176-33.266-37.604-18.802-83.887-41.943-85.333-62.192-1.446-20.248 26.034-33.265 34.712-34.711h293.604l190.916 179.344-151.865 173.56c-1.446 0-8.678-4.34-53.514-44.837z" p-id="18415" fill="#13227a"></path><path d="M833.642 614.69h-37.604V264.677h-11.57l-1.447 1.446-2.893-1.446H658.637c-65.085 0-117.153-52.068-117.153-117.153V50.621H213.168c-43.39 0-78.102 34.712-78.102 78.102V614.69h-39.05V128.723c0-65.085 52.067-117.152 117.152-117.152h325.424l44.836 4.339v14.463l13.017-13.017 215.502 221.288-1.446 1.446 26.034 30.373V614.69h-2.893zM581.982 60.745v86.78c0 43.39 34.711 78.101 78.101 78.101h82.44L581.982 60.746zM260.896 322.53h271.91c10.124 0 18.801 8.678 18.801 18.802 0 10.125-8.677 18.803-18.802 18.803h-271.91c-10.124 0-18.802-8.678-18.802-18.803 0-10.124 8.678-18.802 18.803-18.802z m0 98.35h389.062c10.124 0 18.802 8.678 18.802 18.803s-8.678 18.802-18.802 18.802H260.897c-10.125 0-18.803-8.678-18.803-18.802s8.678-18.803 18.803-18.803z" p-id="18416" fill="#13227a"></path></svg>