<?xml version="1.0" standalone="no"?><!DOCTYPE svg PUBLIC "-//W3C//DTD SVG 1.1//EN" "http://www.w3.org/Graphics/SVG/1.1/DTD/svg11.dtd"><svg t="1597068053979" class="icon" viewBox="0 0 1024 1024" version="1.1" xmlns="http://www.w3.org/2000/svg" p-id="2948" xmlns:xlink="http://www.w3.org/1999/xlink" width="200" height="200"><defs><style type="text/css"></style></defs><path d="M853.911552 817.708032c31.315968-39.328768 48.325632-87.728128 48.325632-138.748928 0-59.639808-23.225344-115.709952-65.396736-157.882368S738.598912 455.68 678.95808 455.68s-115.709952 23.225344-157.882368 65.396736C478.905344 563.249152 455.68 619.319296 455.68 678.959104s23.225344 115.709952 65.396736 157.882368c42.172416 42.171392 98.241536 65.395712 157.882368 65.395712 19.581952 0 39.023616-2.541568 57.785344-7.556096 13.659136-3.649536 21.773312-17.682432 18.122752-31.340544-3.649536-13.66016-17.683456-21.77536-31.340544-18.122752-14.451712 3.861504-29.446144 5.820416-44.567552 5.820416C584.07424 851.037184 506.88 773.842944 506.88 678.959104 506.88 584.07424 584.07424 506.88 678.95808 506.88s172.079104 77.19424 172.079104 172.079104c0 45.964288-17.89952 89.177088-50.40128 121.677824-9.997312 9.998336-9.997312 26.207232 0 36.20352l133.581824 133.5808C939.216896 975.42144 945.768448 977.92 952.32 977.92s13.103104-2.49856 18.102272-7.497728c9.997312-9.998336 9.997312-26.207232 0-36.20352L853.911552 817.708032z" p-id="2949" fill="#8a8a8a"></path><path d="M530.102272 53.577728c-9.998336-9.998336-26.206208-9.998336-36.20352 0l-440.32 440.32c-9.997312 9.998336-9.997312 26.206208 0 36.20352s26.206208 9.998336 36.20352 0L512 107.88352l422.217728 422.217728C939.216896 535.10144 945.768448 537.6 952.32 537.6s13.103104-2.49856 18.102272-7.497728c9.997312-9.998336 9.997312-26.206208 0-36.20352L530.102272 53.577728z" p-id="2950" fill="#8a8a8a"></path><path d="M183.051264 558.451712c-14.138368 0-25.6 11.461632-25.6 25.6L157.451264 952.32c0 14.138368 11.461632 25.6 25.6 25.6L512 977.92c14.138368 0 25.6-11.461632 25.6-25.6 0-14.139392-11.461632-25.6-25.6-25.6L208.651264 926.72 208.651264 584.051712C208.651264 569.914368 197.189632 558.451712 183.051264 558.451712z" p-id="2951" fill="#8a8a8a"></path></svg>