<?xml version="1.0" standalone="no"?><!DOCTYPE svg PUBLIC "-//W3C//DTD SVG 1.1//EN" "http://www.w3.org/Graphics/SVG/1.1/DTD/svg11.dtd"><svg t="1597068010933" class="icon" viewBox="0 0 1024 1024" version="1.1" xmlns="http://www.w3.org/2000/svg" p-id="2682" xmlns:xlink="http://www.w3.org/1999/xlink" width="200" height="200"><defs><style type="text/css"></style></defs><path d="M427.985455 526.894545a125.207273 125.207273 0 1 0-157.789091 0A186.181818 186.181818 0 0 0 162.909091 695.389091a23.272727 23.272727 0 0 0 46.545454 0 139.636364 139.636364 0 1 1 279.272728 0 23.272727 23.272727 0 0 0 46.545454 0 186.181818 186.181818 0 0 0-107.287272-168.494546z m-157.556364-96.34909A78.661818 78.661818 0 1 1 349.090909 509.207273a78.894545 78.894545 0 0 1-78.661818-78.661818zM698.181818 372.363636h93.090909a23.272727 23.272727 0 0 0 0-46.545454h-93.090909a23.272727 23.272727 0 0 0 0 46.545454z" p-id="2683" fill="#8a8a8a"></path><path d="M949.061818 503.389091l-6.516363-2.094546V302.545455a93.090909 93.090909 0 0 0-93.09091-93.09091h-698.181818a93.090909 93.090909 0 0 0-93.090909 93.09091v418.90909a93.090909 93.090909 0 0 0 93.090909 93.09091h545.512728l78.894545 60.50909a44.450909 44.450909 0 0 0 54.458182 0l111.709091-85.643636a46.545455 46.545455 0 0 0 17.221818-30.952727l21.178182-208.058182a44.683636 44.683636 0 0 0-31.185455-47.010909z m-323.490909 46.545454l21.178182 208.058182a63.069091 63.069091 0 0 0 2.094545 9.541818H151.272727a46.545455 46.545455 0 0 1-46.545454-46.545454V302.545455a46.545455 46.545455 0 0 1 46.545454-46.545455h698.181818a46.545455 46.545455 0 0 1 46.545455 46.545455v184.552727l-80.058182-24.669091a45.149091 45.149091 0 0 0-26.065454 0l-133.12 40.96a44.683636 44.683636 0 0 0-31.185455 47.010909z m287.883636 202.007273L802.909091 837.818182l-84.014546-64.465455-25.832727-19.781818-20.945454-205.730909 130.327272-40.494545 109.847273 33.978181 21.178182 6.516364z" p-id="2684" fill="#8a8a8a"></path><path d="M857.367273 605.090909l-57.483637 57.483636-16.523636-16.290909a23.272727 23.272727 0 0 0-33.047273 0 23.272727 23.272727 0 0 0 0 32.814546l33.047273 33.047273a23.272727 23.272727 0 0 0 32.814545 0l74.24-74.24a23.272727 23.272727 0 0 0 0-32.814546 23.272727 23.272727 0 0 0-33.047272 0z" p-id="2685" fill="#8a8a8a"></path></svg>