<?xml version="1.0" standalone="no"?><!DOCTYPE svg PUBLIC "-//W3C//DTD SVG 1.1//EN" "http://www.w3.org/Graphics/SVG/1.1/DTD/svg11.dtd"><svg t="1597067954178" class="icon" viewBox="0 0 1024 1024" version="1.1" xmlns="http://www.w3.org/2000/svg" p-id="1791" xmlns:xlink="http://www.w3.org/1999/xlink" width="200" height="200"><defs><style type="text/css"></style></defs><path d="M511.622912 447.695438 375.587656 583.731718 420.812673 628.958782 479.644593 570.124815 479.644593 959.440635 543.60123 959.440635 543.60123 570.124815 602.434174 628.958782 647.657144 583.731718Z" p-id="1792" fill="#8a8a8a"></path><path d="M511.628028 64.064085 63.90496 511.722684 154.899394 511.722684 191.989127 511.722684 191.989127 959.505104 382.893039 959.512267 382.893039 895.462508 255.774873 895.462508 255.774873 452.02607 219.65421 452.02607 255.778966 415.527808 255.778966 415.527808 511.628028 158.641113 767.453554 414.365332 767.453554 414.348959 803.579333 450.847222 767.463788 450.847222 767.463788 511.722684 767.470951 511.722684 767.470951 895.462508 639.231241 895.462508 639.231241 959.51636 831.441914 959.526593 831.441914 511.722684 868.407827 511.722684 959.340863 511.722684Z" p-id="1793" fill="#8a8a8a"></path></svg>