<?xml version="1.0" standalone="no"?><!DOCTYPE svg PUBLIC "-//W3C//DTD SVG 1.1//EN" "http://www.w3.org/Graphics/SVG/1.1/DTD/svg11.dtd"><svg t="1615621229067" class="icon" viewBox="0 0 1024 1024" version="1.1" xmlns="http://www.w3.org/2000/svg" p-id="2790" xmlns:xlink="http://www.w3.org/1999/xlink" width="200" height="200"><defs><style type="text/css"></style></defs><path d="M512.054235 961.609021c-277.613762 0-496.543983-251.694439-440.995853-539.532053C104.888885 246.778476 246.025323 105.505939 421.246043 71.275323c288.209074-56.304354 540.364001 162.644287 540.364001 440.500573C961.610044 760.252037 760.419859 961.609021 512.054235 961.609021L512.054235 961.609021zM513.13587 153.278989c-224.177735 0-400.588561 204.805526-351.643825 437.470563 28.584012 135.87562 138.550543 245.648746 274.498818 273.883811 232.293577 48.245817 436.663174-127.669728 436.663174-351.896582C872.654037 314.164213 711.711508 153.278989 513.13587 153.278989L513.13587 153.278989zM589.488839 529.090237c-22.481014 14.70184-30.883381 31.733749-30.883381 49.78487l0 66.534346L473.170646 645.409452l0-98.721419c0-29.464055 9.648754-49.500391 37.692461-67.500347l48.197722-32.755008c30.656207-21.176298 30.484292-63.579037 11.183713-82.425268-16.805758-16.464997-45.246507-25.946952-75.503625-19.815301-55.460126 11.181667-59.9463 52.173267-59.9463 90.99955l0 16.97358-85.381599 0c0-72.891124 8.002254-105.929588 46.152133-147.654898 42.520419-46.662763 102.523001-54.157457 157.873634-42.692335 55.293327 11.410887 121.202433 65.452711 121.202433 144.025231C674.641217 484.471017 611.968829 514.388397 589.488839 529.090237L589.488839 529.090237zM515.91517 766.949576c-24.353664 0-44.051285-19.695574-44.051285-43.99091 0-24.357757 19.697621-44.053332 44.051285-44.053332 24.297382 0 43.995003 19.695574 43.995003 44.053332C559.910173 747.254002 540.212552 766.949576 515.91517 766.949576L515.91517 766.949576z" p-id="2791"></path></svg>