<?xml version="1.0" standalone="no"?><!DOCTYPE svg PUBLIC "-//W3C//DTD SVG 1.1//EN" "http://www.w3.org/Graphics/SVG/1.1/DTD/svg11.dtd"><svg t="1595653244318" class="icon" viewBox="0 0 1024 1024" version="1.1" xmlns="http://www.w3.org/2000/svg" p-id="6309" xmlns:xlink="http://www.w3.org/1999/xlink" width="200" height="200"><defs><style type="text/css"></style></defs><path d="M853.333333 967.111111H170.666667a113.777778 113.777778 0 0 1-113.777778-113.777778V170.666667a113.777778 113.777778 0 0 1 113.777778-113.777778h682.666666a113.777778 113.777778 0 0 1 113.777778 113.777778v682.666666a113.777778 113.777778 0 0 1-113.777778 113.777778z m-113.777777-512h-170.666667V284.444444a56.888889 56.888889 0 0 0-113.777778 0v170.666667H284.444444a56.888889 56.888889 0 1 0 0 113.777778h170.666667v170.666667a56.888889 56.888889 0 0 0 113.777778 0v-170.666667h170.666667a56.888889 56.888889 0 0 0 0-113.777778z" fill="#087BD6" p-id="6310"></path></svg>