<?xml version="1.0" standalone="no"?><!DOCTYPE svg PUBLIC "-//W3C//DTD SVG 1.1//EN" "http://www.w3.org/Graphics/SVG/1.1/DTD/svg11.dtd"><svg t="1595658019195" class="icon" viewBox="0 0 1024 1024" version="1.1" xmlns="http://www.w3.org/2000/svg" p-id="8695" xmlns:xlink="http://www.w3.org/1999/xlink" width="200" height="200"><defs><style type="text/css"></style></defs><path d="M500.09 67.48c42.38-1.55 85.09 4.66 125.22 18.42 70.59 23.85 132.82 71.28 174.94 132.7a347.358 347.358 0 0 1 40.07 77.48c35.81 5.41 67.78 30.31 81.96 63.61 14.01 31.73 11.34 70.18-7.03 99.62-9.87 16.05-24.02 29.49-40.6 38.46-16.09 8.74-34.45 13.29-52.76 12.96-11.39-0.33-21.53-10.23-21.88-21.66-0.03-53.34 0-106.69-0.01-160.04-0.07-2.63 0.25-5.31-0.28-7.9-22.58-68.84-71.05-128.64-133.45-165.38-37.15-22.08-79.15-35.93-122.14-40.36-62.05-6.62-126.07 6.5-180.32 37.39-65.78 36.97-116.84 99.38-139.54 171.39-0.53 2.58-0.21 5.23-0.27 7.85v150c-0.02 4.29 0.35 8.72-1.14 12.84-2.89 9.24-12.15 16-21.83 15.91-12.18 0.02-24.39-1.95-35.88-6-25.87-8.92-48-28.14-60.41-52.53-10.72-20.53-14.34-44.59-10.5-67.4 3.83-23.39 15.71-45.36 33.16-61.39 15.75-14.67 36.02-24.39 57.31-27.53 23.53-64.5 66.79-121.54 122.31-161.89 55.76-40.85 123.97-64.38 193.07-66.55M141.75 385.63c-4.4 14.62-2.87 30.86 4.02 44.46 6.52 13.28 18.06 23.9 31.71 29.56 0.04-37.93 0.02-75.86 0.01-113.8-17.08 7.01-30.66 22-35.74 39.78m704.74-39.72c0.03 37.91-0.02 75.82 0.03 113.74 15.05-6.27 27.5-18.6 33.58-33.76 6.06-14.55 6.08-31.43 0.11-46.01-6.06-15.25-18.53-27.77-33.72-33.97z" fill="#0C00BF" p-id="8696"></path><path d="M493.09 169.13c37.13-2.93 74.98 2.85 109.3 17.42 36.35 15.3 68.68 40.03 92.94 71.13 22.71 28.93 38.41 63.32 45.25 99.47 8.3 43.41 4.08 89.16-12.37 130.21-13.12 32.97-33.96 62.77-60.29 86.54-27.28 24.67-60.49 42.77-96.07 52.13-41.35 10.98-85.72 10.3-126.71-1.96-35.63-10.64-68.65-30-95.23-56.01-26.13-25.19-46.13-56.66-57.95-90.97-17.51-50.51-16.87-107.08 1.85-157.16 10.82-29.28 27.75-56.26 49.21-78.91 38.9-41.35 93.43-67.6 150.07-71.89m0.43 46.66c-27.67 2.73-54.72 11.73-78.4 26.31-26.49 16.12-48.8 39-64.33 65.83-14.84 25.46-23.37 54.54-24.76 83.98-2.21 41.58 10.18 83.78 34.59 117.53 20.7 28.99 49.91 51.82 83.06 64.88 37.96 15.08 80.94 17.07 120.14 5.63 33.91-9.74 64.82-29.52 88.06-56.05 22.72-25.74 38.08-57.89 43.73-91.77 6.59-38.71 0.57-79.48-17.17-114.53-16.97-33.82-44.48-62.23-77.77-80.24-32.46-17.81-70.35-25.2-107.15-21.57zM298.29 593.3c6.58-1.39 13.72 0.25 19.03 4.38 31.04 22.94 65.89 40.86 102.89 51.94 41.73 12.58 86.08 16.55 129.34 11.18 7.22-0.63 14.6-3.14 21.79-0.97 9.63 2.66 16.69 12.14 16.67 22.11 0.24 6.38-3.21 11.94-5.45 17.68-16.38 39.39-21.49 83.37-14.55 125.46 5.36 33.43 18.29 65.58 37.4 93.52 3.92 5.37 5.46 12.43 3.97 18.93-1.64 8.27-8.31 15.21-16.42 17.39-3.89 1.17-8 0.77-11.99 0.83H142.03c-3.97-0.05-8.02 0.3-11.89-0.78-9.38-2.36-16.76-11.19-17.13-20.9-0.14-5.03 0.56-10.03 0.95-15.03 7.3-79.74 34.74-157.82 80.58-223.61 25.92-37.31 57.75-70.57 94.2-97.73 2.85-2.09 6.07-3.71 9.55-4.4m-47.74 105.18c-48.87 59.92-79.22 134.19-88.73 210.77h384.41c-10.1-21.07-17.69-43.36-22.27-66.28-8.95-44.2-6.88-90.54 5.86-133.8-42.29 2.18-84.95-3.22-125.41-15.7-35.75-10.95-69.69-27.54-100.74-48.32-19.47 15.9-37.26 33.82-53.12 53.33zM778.52 598.8c35.2-3.58 71.45 2.75 103.16 18.53 37.49 18.35 68.54 49.51 86.77 87.06 19.64 39.75 24.35 86.51 13.59 129.48-8.82 35.74-28.45 68.69-55.56 93.58-24.92 23.04-56.14 39.23-89.38 46.15-40.81 8.64-84.49 3.54-122-14.8-38.34-18.38-70.06-50.13-88.44-88.47-15.51-31.83-21.59-68.12-17.71-103.3 3.7-35.06 17.56-68.97 39.42-96.62 31.3-40.2 79.4-66.79 130.15-71.61m8.06 45.98c-19.89 1.53-39.46 7.28-56.99 16.81-28.8 15.56-52.05 41.25-64.45 71.57-12.52 30.03-14.18 64.35-4.88 95.5 8.58 29 26.71 55 50.77 73.27 29.75 22.89 68.78 33.16 105.95 27.95 35.14-4.53 68.08-22.96 90.74-50.14 26.35-31.04 38.2-73.7 31.77-113.89-5.98-40.46-30.52-77.51-65.08-99.27-25.89-16.52-57.23-24.27-87.83-21.8z" fill="#0C00BF" p-id="8697"></path><path d="M886.71 706.77c9.15-4.86 21.48-2.65 28.2 5.3 7.7 8.37 7.72 22.51-0.06 30.84-36.57 40.4-73.22 80.74-109.81 121.14-8.18 9.09-23.59 9.66-32.52 1.35-30.08-27.24-60.13-54.52-90.2-81.76-9.98-8.64-9.95-25.74 0.02-34.37 8.25-7.82 22.38-8.13 30.87-0.51 24.48 22.08 48.79 44.36 73.33 66.38 29.32-32.52 58.81-64.88 88.2-97.35 3.74-3.91 6.95-8.61 11.97-11.02z" fill="#FC4E7F" p-id="8698"></path></svg>