<?xml version="1.0" standalone="no"?><!DOCTYPE svg PUBLIC "-//W3C//DTD SVG 1.1//EN" "http://www.w3.org/Graphics/SVG/1.1/DTD/svg11.dtd"><svg t="1595657958321" class="icon" viewBox="0 0 1024 1024" version="1.1" xmlns="http://www.w3.org/2000/svg" p-id="8245" xmlns:xlink="http://www.w3.org/1999/xlink" width="200" height="200"><defs><style type="text/css"></style></defs><path d="M963.764706 1024H602.352941a60.235294 60.235294 0 0 1-60.235294-60.235294V602.352941a60.235294 60.235294 0 0 1 60.235294-60.235294h361.411765a60.235294 60.235294 0 0 1 60.235294 60.235294v361.411765a60.235294 60.235294 0 0 1-60.235294 60.235294z m0-542.117647H602.352941a60.235294 60.235294 0 0 1-60.235294-60.235294V60.235294a60.235294 60.235294 0 0 1 60.235294-60.235294h361.411765a60.235294 60.235294 0 0 1 60.235294 60.235294v361.411765a60.235294 60.235294 0 0 1-60.235294 60.235294zM421.647059 1024H60.235294a60.235294 60.235294 0 0 1-60.235294-60.235294V602.352941a60.235294 60.235294 0 0 1 60.235294-60.235294h361.411765a60.235294 60.235294 0 0 1 60.235294 60.235294v361.411765a60.235294 60.235294 0 0 1-60.235294 60.235294z m0-542.117647H60.235294a60.235294 60.235294 0 0 1-60.235294-60.235294V60.235294a60.235294 60.235294 0 0 1 60.235294-60.235294h361.411765a60.235294 60.235294 0 0 1 60.235294 60.235294v361.411765a60.235294 60.235294 0 0 1-60.235294 60.235294z" fill="#0078d7" p-id="8246"></path></svg>