<?xml version="1.0" standalone="no"?><!DOCTYPE svg PUBLIC "-//W3C//DTD SVG 1.1//EN" "http://www.w3.org/Graphics/SVG/1.1/DTD/svg11.dtd"><svg t="1595658024373" class="icon" viewBox="0 0 1024 1024" version="1.1" xmlns="http://www.w3.org/2000/svg" p-id="8841" xmlns:xlink="http://www.w3.org/1999/xlink" width="200" height="200"><defs><style type="text/css"></style></defs><path d="M145.69 107.62c20.89-24.99 52.73-40.41 85.3-41.12 188.35 0 376.7 0.01 565.05-0.01 36.76 0.51 72.43 20.04 93.03 50.42 12.38 17.94 19.5 39.45 20.28 61.23 0.33 8.59 0.06 17.19 0.15 25.79-0.04 125.69 0.08 251.38-0.06 377.06-11.92-6.55-23.83-13.13-35.76-19.67-29.43-16-62.35-25.55-95.79-27.62-41.6-2.72-83.93 5.91-120.98 25.05-29.54 15.13-55.75 36.69-76.37 62.7-23.65 29.69-39.85 65.27-46.58 102.63-7.05 38.72-4.22 79.24 8.52 116.5 9.04 26.83 23.18 51.88 41.22 73.69 9.84 12.18 19.87 24.2 29.57 36.49-125.76-0.02-251.53-0.01-377.29-0.01-18.44 0.01-36.97-3.94-53.45-12.34-27.64-13.6-49.28-38.77-58.68-68.1-4-12.34-5.91-25.35-5.6-38.32 0-217.32 0.01-434.65 0-651.98 0.47-26.33 10.34-52.37 27.44-72.39m35.39 30.37c-10.1 11.94-15.98 27.38-16.33 43.03-0.01 217.32 0.02 434.65-0.01 651.97-0.36 15.96 5.05 31.96 14.98 44.44 10.23 13.06 25.25 22.28 41.54 25.42 8.81 1.8 17.84 1.35 26.77 1.4 90.75 0 181.51 0.01 272.26 0-14.63-25.7-25.26-53.7-31.07-82.7-9.97-49.3-6.47-101.31 10.34-148.73 23.63-67.52 74.4-124.96 138.49-156.72 69.04-34.95 152.82-38.88 224.93-10.91 0.05-106.08 0-212.15 0.03-318.22 0.12-8.34-0.64-16.78-3.22-24.75-5.18-17.01-17.23-31.78-32.77-40.41-10.89-6.11-23.46-9.23-35.96-8.82-186.34 0.02-372.69 0-559.04 0.01-19.51 0.59-38.48 9.99-50.94 24.99z" fill="#0C00BF" p-id="8842"></path><path d="M321.41 222.63c2.47-0.64 5.03-0.88 7.58-0.89 121 0.03 242 0 363.01 0.01 5.31 0.06 10.84-0.45 15.94 1.42 9.03 3.13 15.53 12.21 15.51 21.8 0.39 11.91-9.64 23.09-21.62 23.52-125.28 0.02-250.56 0-375.84 0.02-8.02-0.27-15.45-5.39-19.11-12.44-3.11-5.86-3.51-13.08-1.11-19.26 2.5-6.9 8.59-12.27 15.64-14.18zM325.36 383.38c124.56-0.31 249.13-0.02 373.69-0.14 8.22-0.34 16.37 3.91 20.76 10.87 4.3 6.72 4.83 15.7 1.24 22.85-3.54 7.6-11.58 12.9-19.97 13.04-124.72 0-249.43-0.01-374.14 0.01-8.42 0.02-16.47-5.21-20.19-12.7-3.76-7.28-3.29-16.53 1.2-23.37 3.78-5.94 10.39-9.98 17.41-10.56zM319.48 545.67c2.1-0.66 4.3-0.94 6.5-0.93 46.68 0.03 93.36 0 140.05 0.01 7.98 0.05 15.81 4.23 20.28 10.85 5.3 7.64 6.1 18.63 0.7 26.43-3.91 5.96-10.97 9.64-18.09 9.48-47.97-0.04-95.94 0.02-143.91-0.02-8.3-0.1-16.11-5.68-19.15-13.34-1.89-4.19-1.74-8.88-1.56-13.36 0.45-8.72 6.82-16.67 15.18-19.12zM739.5 557.81c35.91-4.04 72.87 1.29 106.07 15.62 43.86 18.7 80.81 52.98 102.91 95.22 21.01 39.66 28.31 86.18 21.29 130.45-5.6 35.78-20.85 69.95-43.58 98.12-23.08 28.77-53.91 51.25-88.36 64.41-38.92 14.96-82.32 17.75-122.89 8.26-40-9.29-77.02-30.8-104.99-60.85-19.7-20.98-34.97-46.09-44.54-73.22-13.49-38.06-15.58-80.07-6.05-119.3 8.28-34.66 25.78-67.02 50.05-93.08 33.66-36.5 80.7-60.33 130.09-65.63m7 46.04c-45.33 4.31-88.08 28.95-114.86 65.71-22.57 30.37-33.8 68.86-31.32 106.59 1.94 32.14 13.71 63.63 33.48 89.06 17.23 22.55 40.54 40.38 66.74 51.27 38.24 16.01 82.63 16.51 121.24 1.43 33.3-12.85 62.03-37.05 80.5-67.58 20.81-33.83 28.14-75.46 20.8-114.44-7.94-43.56-34.76-83.14-72.04-106.95-30.66-19.92-68.19-28.87-104.54-25.09z" fill="#0C00BF" p-id="8843"></path><path d="M845.73 689.63c4.39-4.7 10.78-7.47 17.23-7.17 7.63-0.16 15.02 4.07 19.15 10.42 5.63 8.44 4.83 20.65-2.02 28.18-35.64 39.34-71.32 78.64-106.96 117.98-2.7 2.99-5.46 6.12-9.17 7.88-8.43 4.5-19.53 3.03-26.48-3.51-30.06-27.24-60.1-54.5-90.16-81.75-6.39-5.84-8.97-15.44-6.35-23.71 1.65-5.83 5.77-10.89 11.11-13.75 8.37-4.6 19.59-3.44 26.68 3.05 24.26 22.03 48.58 44.01 72.81 66.07 31.5-34.46 62.72-69.18 94.16-103.69zM325.29 706.3c31.92-0.12 63.85 0 95.77-0.06 7.62-0.1 15.1 4.01 19.21 10.4 4.26 6.34 5.02 14.8 2.14 21.85-3.37 8.52-12.18 14.57-21.37 14.51-31.01 0.01-62.02-0.01-93.02 0.01-7.5 0.12-15.02-3.48-19.36-9.64-4.88-6.59-5.8-15.82-2.45-23.28 3.24-7.61 10.86-13.07 19.08-13.79z" fill="#FC4E7F" p-id="8844"></path></svg>