<?xml version="1.0" standalone="no"?><!DOCTYPE svg PUBLIC "-//W3C//DTD SVG 1.1//EN" "http://www.w3.org/Graphics/SVG/1.1/DTD/svg11.dtd"><svg t="1615465434175" class="icon" viewBox="0 0 1024 1024" version="1.1" xmlns="http://www.w3.org/2000/svg" p-id="22211" xmlns:xlink="http://www.w3.org/1999/xlink" width="200" height="200"><defs><style type="text/css"></style></defs><path d="M888.832 840.81777778H135.168c-46.76266667 0-84.76444445-38.00177778-84.76444445-84.76444445V251.44888889c0-46.76266667 38.00177778-84.76444445 84.76444445-84.76444444h753.55022222c46.76266667 0 84.76444445 38.00177778 84.76444445 84.76444444v504.60444444c0.11377778 46.76266667-38.00177778 84.76444445-84.65066667 84.76444445zM135.168 229.48977778c-12.06044445 0-21.84533333 9.78488889-21.84533333 21.84533333v504.60444444c0 12.06044445 9.78488889 21.84533333 21.84533333 21.84533334h753.55022222c12.06044445 0 21.84533333-9.78488889 21.84533333-21.84533334V251.44888889c0-12.06044445-9.78488889-21.84533333-21.84533333-21.84533334H135.168z" fill="#2c2c2c" p-id="22212"></path><path d="M961.87733333 422.912H62.12266667v-62.91911111l31.40266666-0.22755556h868.352z" fill="#2c2c2c" p-id="22213"></path><path d="M799.63022222 673.792H626.00533333c-16.15644445 0-29.35466667-13.08444445-29.35466666-29.35466667v-4.20977778c0-16.15644445 13.08444445-29.35466667 29.35466666-29.35466666h173.62488889c16.15644445 0 29.35466667 13.08444445 29.35466667 29.35466666v4.20977778c0 16.15644445-13.19822222 29.35466667-29.35466667 29.35466667z" fill="#2c2c2c" p-id="22214"></path></svg>