<?xml version="1.0" standalone="no"?><!DOCTYPE svg PUBLIC "-//W3C//DTD SVG 1.1//EN" "http://www.w3.org/Graphics/SVG/1.1/DTD/svg11.dtd"><svg t="1615468365613" class="icon" viewBox="0 0 1024 1024" version="1.1" xmlns="http://www.w3.org/2000/svg" p-id="26566" xmlns:xlink="http://www.w3.org/1999/xlink" width="200" height="200"><defs><style type="text/css"></style></defs><path d="M1012.1728 475.136L560.110933 23.074133A67.5328 67.5328 0 0 0 512 3.242667a67.464533 67.464533 0 0 0-48.110933 19.831466L207.735467 279.227733a0.597333 0.597333 0 0 1-1.006934-0.4096v-104.430933c0-17.152-11.690667-33.245867-28.654933-35.7888a33.911467 33.911467 0 0 0-39.133867 33.501867v175.6672l-0.170666 0.4096L11.8272 475.136c-13.499733 13.499733-16.264533 35.6352-3.976533 50.261333a35.9424 35.9424 0 0 0 53.009066 2.372267L139.434667 449.194667a0.597333 0.597333 0 0 1 1.006933 0.4096L139.690667 677.888a34.133333 34.133333 0 0 0 40.2432 33.6896l43.639466-7.936a34.116267 34.116267 0 0 0 18.653867-10.0864l35.106133-36.983467c1.7408-1.826133 3.549867-3.5328 5.461334-5.154133a117.8112 117.8112 0 0 1 79.240533-30.4128h246.493867c32.2048 0 63.4368 13.329067 85.7088 36.608l0.682666 0.7168c13.499733 14.353067 35.7888 15.5136 49.7152 1.5872l24.029867-24.029867c1.621333-1.621333 3.4304-3.157333 5.3248-4.4544 25.309867-17.2544 51.217067-24.1152 75.707733-23.227733 18.944 0.682667 34.3552-15.2064 34.286934-34.167467l-0.4096-124.433066c0-0.529067 0.631467-0.785067 1.006933-0.4096l78.574933 78.574933c14.779733 14.779733 39.253333 13.994667 53.009067-2.372267 12.270933-14.609067 9.506133-36.7616-3.9936-50.261333zM512 342.0672a50.807467 50.807467 0 1 1 0-101.614933 50.824533 50.824533 0 0 1 50.6368 50.807466c0 27.989333-22.664533 50.688-50.6368 50.807467z" fill="#7edd89" p-id="26567"></path><path d="M881.476267 690.807467a50.8416 50.8416 0 0 0-71.8848 0l-150.4768 150.4768h-121.565867a25.412267 25.412267 0 1 1 0-50.824534h67.652267c27.784533 0 52.872533-20.7872 54.101333-48.5376a50.8416 50.8416 0 0 0-50.7904-53.128533H362.0352c-13.858133 0-26.385067 5.5808-35.549867 14.557867l-0.017066-0.085334-42.786134 45.056a67.805867 67.805867 0 0 1-37.0176 20.0192l-132.608 24.1152a33.8944 33.8944 0 0 0-24.405333 48.1792l78.4896 161.058134a33.8944 33.8944 0 0 0 52.992 10.478933l68.1984-60.654933a33.928533 33.928533 0 0 1 22.528-8.567467h364.458667c0.426667 0 0.8192-0.136533 1.2288-0.1536a50.602667 50.602667 0 0 0 38.485333-14.6432l165.461333-165.461333a50.824533 50.824533 0 0 0-0.017066-71.8848z" fill="#7edd89" p-id="26568"></path></svg>