<?xml version="1.0" standalone="no"?><!DOCTYPE svg PUBLIC "-//W3C//DTD SVG 1.1//EN" "http://www.w3.org/Graphics/SVG/1.1/DTD/svg11.dtd"><svg t="1615468291822" class="icon" viewBox="0 0 1024 1024" version="1.1" xmlns="http://www.w3.org/2000/svg" p-id="25223" xmlns:xlink="http://www.w3.org/1999/xlink" width="200" height="200"><defs><style type="text/css"></style></defs><path d="M512 58.9824c-250.6752 0-453.888 203.2128-453.888 453.888s203.2128 453.888 453.888 453.888c250.6752 0 453.888-203.2128 453.888-453.888S762.6752 58.9824 512 58.9824z m156.672 490.24c14.1312 0 25.6 11.4688 25.6 25.6s-11.4688 25.6-25.6 25.6h-126.2592v138.6496c0 14.1312-11.4688 25.6-25.6 25.6s-25.6-11.4688-25.6-25.6v-138.6496H364.9536c-14.1312 0-25.6-11.4688-25.6-25.6s11.4688-25.6 25.6-25.6h126.2592V484.9664H364.9536c-14.1312 0-25.6-11.4688-25.6-25.6s11.4688-25.6 25.6-25.6h95.232L347.9552 333.7216c-10.5472-9.4208-11.4688-25.6-2.0992-36.1472s25.6-11.4688 36.1472-2.0992l133.7344 119.1936 122.368-123.2384a25.56928 25.56928 0 0 1 36.1984-0.1024 25.56928 25.56928 0 0 1 0.1024 36.1984l-105.5232 106.24h99.7376c14.1312 0 25.6 11.4688 25.6 25.6s-11.4688 25.6-25.6 25.6h-126.2592v64.256h126.3104z" fill="#FF623E" p-id="25224"></path></svg>